HIERARCHY
ROOT Hips
{
  OFFSET 6.627 23.425 -246.346
  CHANNELS 6 Xposition Yposition Zposition Zrotation Xrotation Yrotation
  JOINT LeftUpLeg
  {
    OFFSET 5.799 -5.747 1.426
    CHANNELS 6 Xposition Yposition Zposition Zrotation Xrotation Yrotation
    JOINT LeftLeg
    {
      OFFSET 0.000 -48.266 0.000
      CHANNELS 6 Xposition Yposition Zposition Zrotation Xrotation Yrotation
      JOINT LeftFoot
      {
        OFFSET 0.000 -40.843 -0.000
        CHANNELS 6 Xposition Yposition Zposition Zrotation Xrotation Yrotation
        End Site
        {
          OFFSET 0.000 -7.036 4.062
        }
      }
    }
  }
  JOINT RightUpLeg
  {
    OFFSET -5.917 -5.716 1.409
    CHANNELS 6 Xposition Yposition Zposition Zrotation Xrotation Yrotation
    JOINT RightLeg
    {
      OFFSET 0.000 -48.899 0.000
      CHANNELS 6 Xposition Yposition Zposition Zrotation Xrotation Yrotation
      JOINT RightFoot
      {
        OFFSET 0.000 -40.024 -0.000
        CHANNELS 6 Xposition Yposition Zposition Zrotation Xrotation Yrotation
        End Site
        {
          OFFSET 0.000 -7.431 4.290
        }
      }
    }
  }
  JOINT Spine
  {
    OFFSET 0.000 6.308 -6.308
    CHANNELS 6 Xposition Yposition Zposition Zrotation Xrotation Yrotation
    JOINT LeftShoulder
    {
      OFFSET -0.000 38.007 0.000
      CHANNELS 6 Xposition Yposition Zposition Zrotation Xrotation Yrotation
      JOINT LeftArm
      {
        OFFSET 15.412 0.000 -0.000
        CHANNELS 6 Xposition Yposition Zposition Zrotation Xrotation Yrotation
        JOINT LeftForeArm
        {
          OFFSET 22.008 0.000 0.000
          CHANNELS 6 Xposition Yposition Zposition Zrotation Xrotation Yrotation
          JOINT LeftHand
          {
            OFFSET 25.293 0.000 -0.000
            CHANNELS 6 Xposition Yposition Zposition Zrotation Xrotation Yrotation
            JOINT LeftHandThumb1
            {
            OFFSET 4.970 -0.620 3.390
            CHANNELS 6 Xposition Yposition Zposition Zrotation Xrotation Yrotation
              JOINT LeftHandThumb2
              {
              OFFSET 2.150 -0.000 0.000
              CHANNELS 6 Xposition Yposition Zposition Zrotation Xrotation Yrotation
                JOINT LeftHandThumb3
                {
                OFFSET 2.200 -0.000 0.000
                CHANNELS 6 Xposition Yposition Zposition Zrotation Xrotation Yrotation
                  JOINT LeftHandThumb4
                  {
                  OFFSET 1.700 -0.000 0.000
                  CHANNELS 6 Xposition Yposition Zposition Zrotation Xrotation Yrotation
                  }
                }
              }
            }
            JOINT LeftHandIndex1
            {
            OFFSET 8.730 0.680 2.070
            CHANNELS 6 Xposition Yposition Zposition Zrotation Xrotation Yrotation
              JOINT LeftHandIndex2
              {
              OFFSET 2.670 -0.000 0.000
              CHANNELS 6 Xposition Yposition Zposition Zrotation Xrotation Yrotation
                JOINT LeftHandIndex3
                {
                OFFSET 2.130 -0.000 0.000
                CHANNELS 6 Xposition Yposition Zposition Zrotation Xrotation Yrotation
                  JOINT LeftHandIndex4
                  {
                  OFFSET 1.800 -0.000 0.000
                  CHANNELS 6 Xposition Yposition Zposition Zrotation Xrotation Yrotation
                  }
                }
              }
            }
            JOINT LeftHandMiddle1
            {
            OFFSET 9.220 0.670 0.550
            CHANNELS 6 Xposition Yposition Zposition Zrotation Xrotation Yrotation
              JOINT LeftHandMiddle2
              {
              OFFSET 2.660 -0.000 0.000
              CHANNELS 6 Xposition Yposition Zposition Zrotation Xrotation Yrotation
                JOINT LeftHandMiddle3
                {
                OFFSET 2.280 -0.000 0.000
                CHANNELS 6 Xposition Yposition Zposition Zrotation Xrotation Yrotation
                  JOINT LeftHandMiddle4
                  {
                  OFFSET 1.500 -0.000 0.000
                  CHANNELS 6 Xposition Yposition Zposition Zrotation Xrotation Yrotation
                  }
                }
              }
            }
            JOINT LeftHandRing1
            {
            OFFSET 9.250 0.670 -1.130
            CHANNELS 6 Xposition Yposition Zposition Zrotation Xrotation Yrotation
              JOINT LeftHandRing2
              {
              OFFSET 2.470 -0.000 0.000
              CHANNELS 6 Xposition Yposition Zposition Zrotation Xrotation Yrotation
                JOINT LeftHandRing3
                {
                OFFSET 2.210 -0.000 0.000
                CHANNELS 6 Xposition Yposition Zposition Zrotation Xrotation Yrotation
                  JOINT LeftHandRing4
                  {
                  OFFSET 1.800 -0.000 0.000
                  CHANNELS 6 Xposition Yposition Zposition Zrotation Xrotation Yrotation
                  }
                }
              }
            }
            JOINT LeftHandPinky1
            {
            OFFSET 9.350 0.660 -2.720
            CHANNELS 6 Xposition Yposition Zposition Zrotation Xrotation Yrotation
              JOINT LeftHandPinky2
              {
              OFFSET 1.630 -0.000 0.000
              CHANNELS 6 Xposition Yposition Zposition Zrotation Xrotation Yrotation
                JOINT LeftHandPinky3
                {
                OFFSET 1.710 -0.000 0.000
                CHANNELS 6 Xposition Yposition Zposition Zrotation Xrotation Yrotation
                  JOINT LeftHandPinky4
                  {
                  OFFSET 1.800 -0.000 0.000
                  CHANNELS 6 Xposition Yposition Zposition Zrotation Xrotation Yrotation
                  }
                }
              }
            }
          }
        }
      }
    }
    JOINT RightShoulder
    {
      OFFSET -0.000 38.007 0.000
      CHANNELS 6 Xposition Yposition Zposition Zrotation Xrotation Yrotation
      JOINT RightArm
      {
        OFFSET -17.161 0.000 -0.000
        CHANNELS 6 Xposition Yposition Zposition Zrotation Xrotation Yrotation
        JOINT RightForeArm
        {
          OFFSET -24.725 0.000 0.000
          CHANNELS 6 Xposition Yposition Zposition Zrotation Xrotation Yrotation
          JOINT RightHand
          {
            OFFSET -24.249 0.000 -0.000
            CHANNELS 6 Xposition Yposition Zposition Zrotation Xrotation Yrotation
            JOINT RightHandThumb1
            {
            OFFSET -4.970 -0.620 3.390
            CHANNELS 6 Xposition Yposition Zposition Zrotation Xrotation Yrotation
              JOINT RightHandThumb2
              {
              OFFSET -2.150 0.000 0.000
              CHANNELS 6 Xposition Yposition Zposition Zrotation Xrotation Yrotation
                JOINT RightHandThumb3
                {
                OFFSET -2.200 0.000 0.000
                CHANNELS 6 Xposition Yposition Zposition Zrotation Xrotation Yrotation
                  JOINT RightHandThumb4
                  {
                  OFFSET -1.700 0.000 0.000
                  CHANNELS 6 Xposition Yposition Zposition Zrotation Xrotation Yrotation
                  }
                }
              }
            }
            JOINT RightHandIndex1
            {
            OFFSET -8.730 0.680 2.070
            CHANNELS 6 Xposition Yposition Zposition Zrotation Xrotation Yrotation
              JOINT RightHandIndex2
              {
              OFFSET -2.670 0.000 0.000
              CHANNELS 6 Xposition Yposition Zposition Zrotation Xrotation Yrotation
                JOINT RightHandIndex3
                {
                OFFSET -2.130 0.000 0.000
                CHANNELS 6 Xposition Yposition Zposition Zrotation Xrotation Yrotation
                  JOINT RightHandIndex4
                  {
                  OFFSET -1.800 0.000 0.000
                  CHANNELS 6 Xposition Yposition Zposition Zrotation Xrotation Yrotation
                  }
                }
              }
            }
            JOINT RightHandMiddle1
            {
            OFFSET -9.220 0.670 0.550
            CHANNELS 6 Xposition Yposition Zposition Zrotation Xrotation Yrotation
              JOINT RightHandMiddle2
              {
              OFFSET -2.660 0.000 0.000
              CHANNELS 6 Xposition Yposition Zposition Zrotation Xrotation Yrotation
                JOINT RightHandMiddle3
                {
                OFFSET -2.280 0.000 0.000
                CHANNELS 6 Xposition Yposition Zposition Zrotation Xrotation Yrotation
                  JOINT RightHandMiddle4
                  {
                  OFFSET -1.500 0.000 0.000
                  CHANNELS 6 Xposition Yposition Zposition Zrotation Xrotation Yrotation
                  }
                }
              }
            }
            JOINT RightHandRing1
            {
            OFFSET -9.250 0.670 -1.130
            CHANNELS 6 Xposition Yposition Zposition Zrotation Xrotation Yrotation
              JOINT RightHandRing2
              {
              OFFSET -2.470 0.000 0.000
              CHANNELS 6 Xposition Yposition Zposition Zrotation Xrotation Yrotation
                JOINT RightHandRing3
                {
                OFFSET -2.210 0.000 0.000
                CHANNELS 6 Xposition Yposition Zposition Zrotation Xrotation Yrotation
                  JOINT RightHandRing4
                  {
                  OFFSET -1.800 0.000 0.000
                  CHANNELS 6 Xposition Yposition Zposition Zrotation Xrotation Yrotation
                  }
                }
              }
            }
            JOINT RightHandPinky1
            {
            OFFSET -9.350 0.660 -2.720
            CHANNELS 6 Xposition Yposition Zposition Zrotation Xrotation Yrotation
              JOINT RightHandPinky2
              {
              OFFSET -1.630 0.000 0.000
              CHANNELS 6 Xposition Yposition Zposition Zrotation Xrotation Yrotation
                JOINT RightHandPinky3
                {
                OFFSET -1.710 0.000 0.000
                CHANNELS 6 Xposition Yposition Zposition Zrotation Xrotation Yrotation
                  JOINT RightHandPinky4
                  {
                  OFFSET -1.800 0.000 0.000
                  CHANNELS 6 Xposition Yposition Zposition Zrotation Xrotation Yrotation
                  }
                }
              }
            }
          }
        }
      }
    }
    JOINT Neck
    {
      OFFSET -0.000 38.007 0.000
      CHANNELS 6 Xposition Yposition Zposition Zrotation Xrotation Yrotation
      JOINT Head
      {
        OFFSET -0.000 18.537 -0.000
        CHANNELS 6 Xposition Yposition Zposition Zrotation Xrotation Yrotation
        End Site
        {
          OFFSET -0.000 0.074 -0.000
        }
      }
    }
  }
}
MOTION
Frames:	4
Frame Time:	0.0333333
24.9915 19.6311 -269.286 -1.50366 3.47814 -3.55024 5.90663 -6.02033 1.2737 -7.84889 -15.0622 -11.4558 0 -47.9779 0 12.1732 58.1531 1.61806e-06 -5.96046e-06 -40.3752 0 -92.8327 41.4041 19.2411 -5.90546 -5.5824 1.34845 10.0838 -3.08524 1.03706 7.45058e-07 -47.4962 0 -19.5895 -27.7782 -3.4736 -8.00937e-06 -40.6007 -7.15256e-05 1.49837 -3.56519 0.819343 1.49012e-06 6.11734 -6.11732 -0.553911 -3.24728 -1.76489 -7.72998e-06 38.0072 -2.38419e-05 -37.5311 1.06722e-05 -0.593599 15.1676 -5.96046e-06 2.38419e-05 37.3219 4.39909 -33.9295 21.6455 -2.98023e-06 -9.53674e-05 1.47875e-05 1.28066e-06 -70.0489 27.7541 1.19209e-05 -8.9407e-06 2.45214 -0.0192919 -0.230354 0.0062 0.0497 0.0339 -45 0 0 0 0.0215 0 0 -45 0 0 0.022 0 0 -45 0 0 0.017 0 0 0 0 -0.0068 0.0873 0.0207 -45 0 0 0 0.0267 0 -80 0 0 0 0.0213 0 -90 0 0 0 0.018 0 0 0 0 -0.0067 0.0922 0.0055 -45 0 0 0 0.0266 0 -80 0 0 0 0.0228 0 -90 0 0 0 0.015 0 0 0 0 -0.0067 0.0925 -0.0113 -45 0 0 0 0.0247 0 -80 0 0 0 0.0221 0 -90 0 0 0 0.018 0 0 0 0 -0.0066 0.0935 -0.0272 -45 0 0 0 0.0163 0 -80 0 0 0 0.0171 0 -90 0 0 0 0.018 0 0 0 0 -7.72998e-06 38.0072 -2.38419e-05 30.5283 -2.77476e-06 0.532102 -16.9202 0 0 -35.2118 -54.4702 4.31654 -24.2894 -4.76837e-05 0 -1.63407e-05 5.12264e-06 72.5944 -27.0707 -9.53674e-05 5.96046e-06 -13.1582 0.0405615 7.17551 -0.0062 0.0497 0.0339 0 0 0 0 0.0215 0 0 0 0 0 0.022 0 0 0 0 0 0.017 0 0 0 0 0.0068 0.0873 0.0207 0 0 0 0 0.0267 0 0 0 0 0 0.0213 0 0 0 0 0 0.018 0 0 0 0 0.0067 0.0922 0.0055 0 0 0 0 0.0266 0 0 0 0 0 0.0228 0 0 0 0 0 0.015 0 0 0 0 0.0067 0.0925 -0.0113 0 0 0 0 0.0247 0 0 0 0 0 0.0221 0 0 0 0 0 0.018 0 0 0 0 0.0066 0.0935 -0.0272 0 0 0 0 0.0163 0 0 0 0 0 0.0171 0 0 0 0 0 0.018 0 0 0 0 -7.72998e-06 38.0072 -2.38419e-05 11.4388 4.88084 -0.986297 2.23517e-06 17.9842 -4.76837e-05 8.40433e-06 -1.06722e-05 0 
24.3988 20.1917 -272.091 -1.63844 3.44226 -5.19473 6.01493 -5.98282 1.02189 -1.78307 -7.8437 -1.77332 -3.35276e-06 -46.6224 -2.38419e-05 6.27579 39.8847 5.56323e-07 -3.72529e-07 -39.9883 0 -33.3905 5.08965 -8.10036 -5.83525 -5.73134 1.59578 4.17865 -9.17113 2.77897 7.45058e-07 -45.7472 2.38419e-05 -13.308 -5.61811 -1.71579e-06 0 -39.0085 0 1.17144 -3.15432 0.660908 -1.86265e-07 6.1011 -6.10111 0.562949 -3.27646 -3.6305 -5.96046e-06 38.0072 4.76837e-05 -41.1371 1.19528e-05 -0.389388 15.125 2.98023e-06 -4.76837e-05 40.1597 3.47568 -28.0982 21.2609 -5.96046e-06 -4.76837e-05 8.52655e-07 2.77476e-06 -71.0632 27.8253 1.49012e-05 2.08616e-05 2.41197 -0.013353 -0.250522 0.0062 0.0497 0.0339 -45 0 0 0 0.0215 0 0 -45 0 0 0.022 0 0 -45 0 0 0.017 0 0 0 0 -0.0068 0.0873 0.0207 -45 0 0 0 0.0267 0 -80 0 0 0 0.0213 0 -90 0 0 0 0.018 0 0 0 0 -0.0067 0.0922 0.0055 -45 0 0 0 0.0266 0 -80 0 0 0 0.0228 0 -90 0 0 0 0.015 0 0 0 0 -0.0067 0.0925 -0.0113 -45 0 0 0 0.0247 0 -80 0 0 0 0.0221 0 -90 0 0 0 0.018 0 0 0 0 -0.0066 0.0935 -0.0272 -45 0 0 0 0.0163 0 -80 0 0 0 0.0171 0 -90 0 0 0 0.018 0 0 0 0 -5.96046e-06 38.0072 4.76837e-05 26.1824 -3.84198e-06 0.33571 -17.543 0 -4.76837e-05 -19.85 -53.7448 15.9323 -23.1729 -4.76837e-05 0 1.82168e-05 8.53773e-06 72.3454 -27.2164 4.76837e-05 0 -13.2079 0.00164234 8.62434 -0.0062 0.0497 0.0339 0 0 0 0 0.0215 0 0 0 0 0 0.022 0 0 0 0 0 0.017 0 0 0 0 0.0068 0.0873 0.0207 0 0 0 0 0.0267 0 0 0 0 0 0.0213 0 0 0 0 0 0.018 0 0 0 0 0.0067 0.0922 0.0055 0 0 0 0 0.0266 0 0 0 0 0 0.0228 0 0 0 0 0 0.015 0 0 0 0 0.0067 0.0925 -0.0113 0 0 0 0 0.0247 0 0 0 0 0 0.0221 0 0 0 0 0 0.018 0 0 0 0 0.0066 0.0935 -0.0272 0 0 0 0 0.0163 0 0 0 0 0 0.0171 0 0 0 0 0 0.018 0 0 0 0 -5.96046e-06 38.0072 4.76837e-05 10.8075 5.51669 -1.05137 -8.9407e-06 17.8225 -2.38419e-05 1.09923e-05 -9.8184e-06 0 
24.3988 20.1917 -272.091 -1.63844 3.44226 -5.19473 6.01493 -5.98282 1.02189 -1.78307 -7.8437 -1.77332 -3.35276e-06 -46.6224 -2.38419e-05 6.27579 39.8847 5.56323e-07 -3.72529e-07 -39.9883 0 -33.3905 5.08965 -8.10036 -5.83525 -5.73134 1.59578 4.17865 -9.17113 2.77897 7.45058e-07 -45.7472 2.38419e-05 -13.308 -5.61811 -1.71579e-06 0 -39.0085 0 1.17144 -3.15432 0.660908 -1.86265e-07 6.1011 -6.10111 0.562949 -3.27646 -3.6305 -5.96046e-06 38.0072 4.76837e-05 -41.1371 1.19528e-05 -0.389388 15.125 2.98023e-06 -4.76837e-05 40.1597 3.47568 -28.0982 21.2609 -5.96046e-06 -4.76837e-05 8.52655e-07 2.77476e-06 -71.0632 27.8253 1.49012e-05 2.08616e-05 2.41197 -0.013353 -0.250522 0.0062 0.0497 0.0339 -45 0 0 0 0.0215 0 0 -45 0 0 0.022 0 0 -45 0 0 0.017 0 0 0 0 -0.0068 0.0873 0.0207 -45 0 0 0 0.0267 0 -80 0 0 0 0.0213 0 -90 0 0 0 0.018 0 0 0 0 -0.0067 0.0922 0.0055 -45 0 0 0 0.0266 0 -80 0 0 0 0.0228 0 -90 0 0 0 0.015 0 0 0 0 -0.0067 0.0925 -0.0113 -45 0 0 0 0.0247 0 -80 0 0 0 0.0221 0 -90 0 0 0 0.018 0 0 0 0 -0.0066 0.0935 -0.0272 -45 0 0 0 0.0163 0 -80 0 0 0 0.0171 0 -90 0 0 0 0.018 0 0 0 0 -5.96046e-06 38.0072 4.76837e-05 26.1824 -3.84198e-06 0.33571 -17.543 0 -4.76837e-05 -19.85 -53.7448 15.9323 -23.1729 -4.76837e-05 0 1.82168e-05 8.53773e-06 72.3454 -27.2164 4.76837e-05 0 -13.2079 0.00164234 8.62434 -0.0062 0.0497 0.0339 0 0 0 0 0.0215 0 0 0 0 0 0.022 0 0 0 0 0 0.017 0 0 0 0 0.0068 0.0873 0.0207 0 0 0 0 0.0267 0 0 0 0 0 0.0213 0 0 0 0 0 0.018 0 0 0 0 0.0067 0.0922 0.0055 0 0 0 0 0.0266 0 0 0 0 0 0.0228 0 0 0 0 0 0.015 0 0 0 0 0.0067 0.0925 -0.0113 0 0 0 0 0.0247 0 0 0 0 0 0.0221 0 0 0 0 0 0.018 0 0 0 0 0.0066 0.0935 -0.0272 0 0 0 0 0.0163 0 0 0 0 0 0.0171 0 0 0 0 0 0.018 0 0 0 0 -5.96046e-06 38.0072 4.76837e-05 10.8075 5.51669 -1.05137 -8.9407e-06 17.8225 -2.38419e-05 1.09923e-05 -9.8184e-06 0 
23.2943 21.1689 -274.67 -1.4297 3.29885 -4.28112 6.22278 -6.07518 1.21694 1.54623 -4.40201 -0.306157 -1.49012e-06 -46.7267 4.76837e-05 1.0763 31.5172 -1.50227e-06 -4.47035e-06 -40.9416 0 -10.9401 -15.9936 -4.30487 -5.92884 -5.96808 1.51143 -2.33447 -13.0556 3.83222 0 -45.2134 0 -12.0315 11.686 -1.08981e-06 -2.23517e-06 -40.2885 -4.76837e-05 -4.98492 0.0582908 -2.16425 1.86265e-07 6.10847 -6.10845 2.03123 -3.09151 -3.2163 0 38.0072 0 -40.4856 1.36604e-05 -0.59214 16.2588 -1.19209e-05 2.38419e-05 36.7491 3.23421 -30.6651 21.4571 5.96046e-06 2.38419e-05 1.04045e-05 4.05542e-06 -67.6101 28.232 -8.9407e-06 1.49012e-05 0.322928 -0.0279564 -3.61647 0.0062 0.0497 0.0339 -45 0 0 0 0.0215 0 0 -45 0 0 0.022 0 0 -45 0 0 0.017 0 0 0 0 -0.0068 0.0873 0.0207 -45 0 0 0 0.0267 0 -80 0 0 0 0.0213 0 -90 0 0 0 0.018 0 0 0 0 -0.0067 0.0922 0.0055 -45 0 0 0 0.0266 0 -80 0 0 0 0.0228 0 -90 0 0 0 0.015 0 0 0 0 -0.0067 0.0925 -0.0113 -45 0 0 0 0.0247 0 -80 0 0 0 0.0221 0 -90 0 0 0 0.018 0 0 0 0 -0.0066 0.0935 -0.0272 -45 0 0 0 0.0163 0 -80 0 0 0 0.0171 0 -90 0 0 0 0.018 0 0 0 0 0 38.0072 0 27.3388 -3.84198e-06 0.566249 -17.0019 0 -2.38419e-05 -24.4695 -53.0792 12.5237 -23.1622 -4.76837e-05 2.38419e-05 -3.5705e-05 3.41509e-06 73.5588 -27.283 -0.000119209 -5.96046e-06 -14.3019 -0.0140442 10.0487 -0.0062 0.0497 0.0339 0 0 0 0 0.0215 0 0 0 0 0 0.022 0 0 0 0 0 0.017 0 0 0 0 0.0068 0.0873 0.0207 0 0 0 0 0.0267 0 0 0 0 0 0.0213 0 0 0 0 0 0.018 0 0 0 0 0.0067 0.0922 0.0055 0 0 0 0 0.0266 0 0 0 0 0 0.0228 0 0 0 0 0 0.015 0 0 0 0 0.0067 0.0925 -0.0113 0 0 0 0 0.0247 0 0 0 0 0 0.0221 0 0 0 0 0 0.018 0 0 0 0 0.0066 0.0935 -0.0272 0 0 0 0 0.0163 0 0 0 0 0 0.0171 0 0 0 0 0 0.018 0 0 0 0 0 38.0072 0 5.88587 3.89121 -0.400833 -5.96046e-06 17.2958 2.38419e-05 9.33815e-06 -9.60496e-06 8.53774e-07 
